<?xml version="1.0" encoding="UTF-8"?>
<!DOCTYPE svg PUBLIC "-//W3C//DTD SVG 1.1//EN" "http://www.w3.org/Graphics/SVG/1.1/DTD/svg11.dtd">
<svg xmlns="http://www.w3.org/2000/svg" version="1.1" width="1080px" height="1080px" style="shape-rendering:geometricPrecision; text-rendering:geometricPrecision; image-rendering:optimizeQuality; fill-rule:evenodd; clip-rule:evenodd" xmlns:xlink="http://www.w3.org/1999/xlink">
<g><path style="opacity:1" fill="#fefffe" d="M 1076.5,-0.5 C 1077.5,-0.5 1078.5,-0.5 1079.5,-0.5C 1079.5,285.167 1079.5,570.833 1079.5,856.5C 720.359,930.707 361.359,1005.04 2.5,1079.5C 1.5,1079.5 0.5,1079.5 -0.5,1079.5C -0.5,793.833 -0.5,508.167 -0.5,222.5C 358.641,148.293 717.641,73.96 1076.5,-0.5 Z M 916.5,192.5 C 932.118,190.388 946.451,193.555 959.5,202C 968.257,210.682 973.424,221.182 975,233.5C 976.253,243.113 976.753,252.613 976.5,262C 974.005,283.115 971.505,304.281 969,325.5C 946.96,331.075 924.793,335.409 902.5,338.5C 905.982,317.977 907.815,297.311 908,276.5C 905.384,267.522 899.384,263.189 890,263.5C 879.423,264.352 869.257,266.852 859.5,271C 850.652,276.524 844.819,284.358 842,294.5C 836.754,330.207 832.587,366.04 829.5,402C 827.937,410.006 830.603,416.006 837.5,420C 861.385,431.631 885.718,442.297 910.5,452C 922.258,456.621 932.758,463.121 942,471.5C 944.804,475.443 946.804,479.777 948,484.5C 948.667,492.833 948.667,501.167 948,509.5C 943.082,553.175 938.082,596.842 933,640.5C 929.94,672.74 916.773,699.907 893.5,722C 880.077,732.389 865.077,739.722 848.5,744C 826.863,749.128 805.029,752.962 783,755.5C 758.368,756.367 742.702,745.033 736,721.5C 733.904,711.614 732.737,701.614 732.5,691.5C 733.377,675.111 734.877,658.777 737,642.5C 757.954,637.141 779.121,632.475 800.5,628.5C 801.5,628.833 802.5,629.167 803.5,629.5C 801.306,642.128 800.14,655.128 800,668.5C 802.413,682.308 810.579,687.474 824.5,684C 836.686,683.09 847.519,678.923 857,671.5C 862.205,665.422 865.538,658.422 867,650.5C 871.635,614.773 875.801,579.273 879.5,544C 880.402,536.536 877.735,530.869 871.5,527C 842.889,512.862 813.889,499.529 784.5,487C 770.116,480.943 762.282,470.11 761,454.5C 760.333,446.833 760.333,439.167 761,431.5C 765.918,388.49 770.918,345.49 776,302.5C 780.449,269.079 795.616,241.913 821.5,221C 831.351,214.41 842.017,209.41 853.5,206C 874.592,201.283 895.592,196.783 916.5,192.5 Z M 660.5,246.5 C 673.702,246.045 686.369,248.878 698.5,255C 708.102,261.94 714.602,271.107 718,282.5C 720.57,292.844 722.07,303.344 722.5,314C 708.272,449.324 692.772,584.49 676,719.5C 664.248,762.583 636.414,788.417 592.5,797C 548.882,806.157 505.215,814.99 461.5,823.5C 482.069,640.474 502.903,457.474 524,274.5C 569.382,264.058 614.882,254.724 660.5,246.5 Z M 483.5,281.5 C 484.289,281.783 484.956,282.283 485.5,283C 439.618,471.027 394.285,659.193 349.5,847.5C 325.523,852.295 301.523,856.962 277.5,861.5C 277.266,829.115 276.599,796.449 275.5,763.5C 275.524,760.579 275.857,757.746 276.5,755C 275.833,742.333 275.167,729.667 274.5,717C 275.417,711.17 275.751,705.17 275.5,699C 274.833,684.333 274.167,669.667 273.5,655C 273.919,645.465 274.252,635.965 274.5,626.5C 273.844,615.303 273.177,604.137 272.5,593C 273.125,581.713 273.459,570.38 273.5,559C 272.874,558.25 272.374,557.416 272,556.5C 246.433,663.452 221.1,770.786 196,878.5C 171.96,884.108 147.794,888.941 123.5,893C 124.12,888.116 124.453,883.116 124.5,878C 122.867,815.553 121.201,753.553 119.5,692C 119.85,689.029 120.184,686.029 120.5,683C 118.248,618.748 116.581,554.748 115.5,491C 115.816,487.971 116.15,484.971 116.5,482C 115.833,469 115.167,456 114.5,443C 114.143,414.932 114.143,386.765 114.5,358.5C 135.735,354.02 156.901,349.354 178,344.5C 178.422,346.355 178.922,348.189 179.5,350C 179.306,478.883 178.973,609.217 178.5,741C 179.126,741.75 179.626,742.584 180,743.5C 211.043,604.616 242.21,465.782 273.5,327C 273.905,326.055 274.572,325.388 275.5,325C 292.13,321.203 308.63,318.037 325,315.5C 325.333,447.833 325.667,580.167 326,712.5C 357.548,574.746 388.715,436.246 419.5,297C 419.905,296.055 420.572,295.388 421.5,295C 442.394,290.924 463.06,286.424 483.5,281.5 Z"/></g>
<g><path style="opacity:1" fill="#fefffe" d="M 627.5,316.5 C 646.828,313.49 656.161,321.823 655.5,341.5C 641.744,464.546 627.578,587.546 613,710.5C 610.037,719.131 604.537,725.631 596.5,730C 576.093,735.748 555.426,740.081 534.5,743C 550.621,605.25 566.454,467.417 582,329.5C 582.318,327.939 583.151,326.772 584.5,326C 599.033,323.129 613.366,319.963 627.5,316.5 Z"/></g>
</svg>
