<?xml version="1.0" encoding="UTF-8"?>
<!DOCTYPE svg PUBLIC "-//W3C//DTD SVG 1.1//EN" "http://www.w3.org/Graphics/SVG/1.1/DTD/svg11.dtd">
<svg xmlns="http://www.w3.org/2000/svg" version="1.1" width="124px" height="125px" style="shape-rendering:geometricPrecision; text-rendering:geometricPrecision; image-rendering:optimizeQuality; fill-rule:evenodd; clip-rule:evenodd" xmlns:xlink="http://www.w3.org/1999/xlink">
<g><path style="opacity:1" fill="#000000" d="M 38.5,-0.5 C 45.1667,-0.5 51.8333,-0.5 58.5,-0.5C 58.5,1.16667 58.5,2.83333 58.5,4.5C 51.8333,4.5 45.1667,4.5 38.5,4.5C 38.5,2.83333 38.5,1.16667 38.5,-0.5 Z"/></g>
<g><path style="opacity:1" fill="#000000" d="M 63.5,-0.5 C 70.1667,-0.5 76.8333,-0.5 83.5,-0.5C 83.5,1.16667 83.5,2.83333 83.5,4.5C 76.8333,4.5 70.1667,4.5 63.5,4.5C 63.5,2.83333 63.5,1.16667 63.5,-0.5 Z"/></g>
<g><path style="opacity:1" fill="#000000" d="M 38.5,4.5 C 38.5,6.16667 38.5,7.83333 38.5,9.5C 35.1667,9.5 31.8333,9.5 28.5,9.5C 28.5,7.83333 28.5,6.16667 28.5,4.5C 31.8333,4.5 35.1667,4.5 38.5,4.5 Z"/></g>
<g><path style="opacity:1" fill="#5b4032" d="M 38.5,4.5 C 45.1667,4.5 51.8333,4.5 58.5,4.5C 58.5,7.83333 58.5,11.1667 58.5,14.5C 60.1667,14.5 61.8333,14.5 63.5,14.5C 63.5,11.1667 63.5,7.83333 63.5,4.5C 70.1667,4.5 76.8333,4.5 83.5,4.5C 83.5,6.16667 83.5,7.83333 83.5,9.5C 86.8333,9.5 90.1667,9.5 93.5,9.5C 93.5,11.1667 93.5,12.8333 93.5,14.5C 95.1667,14.5 96.8333,14.5 98.5,14.5C 98.5,16.1667 98.5,17.8333 98.5,19.5C 100.167,19.5 101.833,19.5 103.5,19.5C 103.5,22.8333 103.5,26.1667 103.5,29.5C 103.5,34.5 103.5,39.5 103.5,44.5C 101.833,44.5 100.167,44.5 98.5,44.5C 98.5,42.8333 98.5,41.1667 98.5,39.5C 98.5,36.1667 98.5,32.8333 98.5,29.5C 96.8333,29.5 95.1667,29.5 93.5,29.5C 93.5,32.8333 93.5,36.1667 93.5,39.5C 93.5,42.8333 93.5,46.1667 93.5,49.5C 91.8333,49.5 90.1667,49.5 88.5,49.5C 88.5,47.8333 88.5,46.1667 88.5,44.5C 86.8333,44.5 85.1667,44.5 83.5,44.5C 83.5,39.5 83.5,34.5 83.5,29.5C 83.5,26.1667 83.5,22.8333 83.5,19.5C 81.8333,19.5 80.1667,19.5 78.5,19.5C 78.5,17.8333 78.5,16.1667 78.5,14.5C 76.8333,14.5 75.1667,14.5 73.5,14.5C 73.5,21.1667 73.5,27.8333 73.5,34.5C 71.8333,34.5 70.1667,34.5 68.5,34.5C 68.5,29.5 68.5,24.5 68.5,19.5C 66.8333,19.5 65.1667,19.5 63.5,19.5C 63.5,26.1667 63.5,32.8333 63.5,39.5C 65.1667,39.5 66.8333,39.5 68.5,39.5C 68.5,41.1667 68.5,42.8333 68.5,44.5C 68.5,47.8333 68.5,51.1667 68.5,54.5C 66.8333,54.5 65.1667,54.5 63.5,54.5C 63.5,51.1667 63.5,47.8333 63.5,44.5C 61.8333,44.5 60.1667,44.5 58.5,44.5C 58.5,37.8333 58.5,31.1667 58.5,24.5C 56.8333,24.5 55.1667,24.5 53.5,24.5C 53.5,26.1667 53.5,27.8333 53.5,29.5C 51.8333,29.5 50.1667,29.5 48.5,29.5C 48.5,31.1667 48.5,32.8333 48.5,34.5C 45.1667,34.5 41.8333,34.5 38.5,34.5C 38.5,36.1667 38.5,37.8333 38.5,39.5C 36.8333,39.5 35.1667,39.5 33.5,39.5C 33.5,36.1667 33.5,32.8333 33.5,29.5C 31.8333,29.5 30.1667,29.5 28.5,29.5C 28.5,34.5 28.5,39.5 28.5,44.5C 26.8333,44.5 25.1667,44.5 23.5,44.5C 23.5,47.8333 23.5,51.1667 23.5,54.5C 21.8333,54.5 20.1667,54.5 18.5,54.5C 18.5,52.8333 18.5,51.1667 18.5,49.5C 18.5,46.1667 18.5,42.8333 18.5,39.5C 20.1667,39.5 21.8333,39.5 23.5,39.5C 23.5,37.8333 23.5,36.1667 23.5,34.5C 21.8333,34.5 20.1667,34.5 18.5,34.5C 18.5,32.8333 18.5,31.1667 18.5,29.5C 20.1667,29.5 21.8333,29.5 23.5,29.5C 23.5,26.1667 23.5,22.8333 23.5,19.5C 23.5,17.8333 23.5,16.1667 23.5,14.5C 25.1667,14.5 26.8333,14.5 28.5,14.5C 28.5,12.8333 28.5,11.1667 28.5,9.5C 31.8333,9.5 35.1667,9.5 38.5,9.5C 38.5,7.83333 38.5,6.16667 38.5,4.5 Z"/></g>
<g><path style="opacity:1" fill="#000000" d="M 83.5,4.5 C 86.8333,4.5 90.1667,4.5 93.5,4.5C 93.5,6.16667 93.5,7.83333 93.5,9.5C 90.1667,9.5 86.8333,9.5 83.5,9.5C 83.5,7.83333 83.5,6.16667 83.5,4.5 Z"/></g>
<g><path style="opacity:1" fill="#000000" d="M 28.5,9.5 C 28.5,11.1667 28.5,12.8333 28.5,14.5C 26.8333,14.5 25.1667,14.5 23.5,14.5C 23.5,12.8333 23.5,11.1667 23.5,9.5C 25.1667,9.5 26.8333,9.5 28.5,9.5 Z"/></g>
<g><path style="opacity:1" fill="#1d0600" d="M 58.5,4.5 C 60.1667,4.5 61.8333,4.5 63.5,4.5C 63.5,7.83333 63.5,11.1667 63.5,14.5C 61.8333,14.5 60.1667,14.5 58.5,14.5C 58.5,11.1667 58.5,7.83333 58.5,4.5 Z"/></g>
<g><path style="opacity:1" fill="#000000" d="M 93.5,9.5 C 95.1667,9.5 96.8333,9.5 98.5,9.5C 98.5,11.1667 98.5,12.8333 98.5,14.5C 98.5,12.8333 98.5,11.1667 98.5,9.5C 96.8333,9.5 95.1667,9.5 93.5,9.5 Z"/></g>
<g><path style="opacity:1" fill="#000000" d="M 23.5,14.5 C 23.5,16.1667 23.5,17.8333 23.5,19.5C 21.8333,19.5 20.1667,19.5 18.5,19.5C 18.5,17.8333 18.5,16.1667 18.5,14.5C 20.1667,14.5 21.8333,14.5 23.5,14.5 Z"/></g>
<g><path style="opacity:1" fill="#3f2518" d="M 83.5,29.5 C 81.8333,29.5 80.1667,29.5 78.5,29.5C 78.5,32.8333 78.5,36.1667 78.5,39.5C 76.8333,39.5 75.1667,39.5 73.5,39.5C 73.5,41.1667 73.5,42.8333 73.5,44.5C 71.8333,44.5 70.1667,44.5 68.5,44.5C 68.5,42.8333 68.5,41.1667 68.5,39.5C 68.5,37.8333 68.5,36.1667 68.5,34.5C 70.1667,34.5 71.8333,34.5 73.5,34.5C 73.5,27.8333 73.5,21.1667 73.5,14.5C 75.1667,14.5 76.8333,14.5 78.5,14.5C 78.5,16.1667 78.5,17.8333 78.5,19.5C 80.1667,19.5 81.8333,19.5 83.5,19.5C 83.5,22.8333 83.5,26.1667 83.5,29.5 Z"/></g>
<g><path style="opacity:1" fill="#000000" d="M 98.5,14.5 C 100.167,14.5 101.833,14.5 103.5,14.5C 103.5,16.1667 103.5,17.8333 103.5,19.5C 103.5,17.8333 103.5,16.1667 103.5,14.5C 101.833,14.5 100.167,14.5 98.5,14.5 Z"/></g>
<g><path style="opacity:1" fill="#000000" d="M 18.5,19.5 C 18.5,22.8333 18.5,26.1667 18.5,29.5C 16.8333,29.5 15.1667,29.5 13.5,29.5C 13.5,26.1667 13.5,22.8333 13.5,19.5C 15.1667,19.5 16.8333,19.5 18.5,19.5 Z"/></g>
<g><path style="opacity:1" fill="#422819" d="M 18.5,19.5 C 20.1667,19.5 21.8333,19.5 23.5,19.5C 23.5,22.8333 23.5,26.1667 23.5,29.5C 21.8333,29.5 20.1667,29.5 18.5,29.5C 18.5,26.1667 18.5,22.8333 18.5,19.5 Z"/></g>
<g><path style="opacity:1" fill="#7e6455" d="M 68.5,34.5 C 68.5,36.1667 68.5,37.8333 68.5,39.5C 66.8333,39.5 65.1667,39.5 63.5,39.5C 63.5,32.8333 63.5,26.1667 63.5,19.5C 65.1667,19.5 66.8333,19.5 68.5,19.5C 68.5,24.5 68.5,29.5 68.5,34.5 Z"/></g>
<g><path style="opacity:1" fill="#000000" d="M 103.5,19.5 C 105.167,19.5 106.833,19.5 108.5,19.5C 108.5,22.8333 108.5,26.1667 108.5,29.5C 106.833,29.5 105.167,29.5 103.5,29.5C 103.5,26.1667 103.5,22.8333 103.5,19.5 Z"/></g>
<g><path style="opacity:1" fill="#240a00" d="M 33.5,29.5 C 33.5,27.8333 33.5,26.1667 33.5,24.5C 35.1667,24.5 36.8333,24.5 38.5,24.5C 38.5,26.1667 38.5,27.8333 38.5,29.5C 36.8333,29.5 35.1667,29.5 33.5,29.5 Z"/></g>
<g><path style="opacity:1" fill="#080100" d="M 58.5,44.5 C 56.8333,44.5 55.1667,44.5 53.5,44.5C 53.5,42.8333 53.5,41.1667 53.5,39.5C 51.8333,39.5 50.1667,39.5 48.5,39.5C 48.5,37.8333 48.5,36.1667 48.5,34.5C 48.5,32.8333 48.5,31.1667 48.5,29.5C 50.1667,29.5 51.8333,29.5 53.5,29.5C 53.5,27.8333 53.5,26.1667 53.5,24.5C 55.1667,24.5 56.8333,24.5 58.5,24.5C 58.5,31.1667 58.5,37.8333 58.5,44.5 Z"/></g>
<g><path style="opacity:1" fill="#000000" d="M 13.5,29.5 C 13.5,36.1667 13.5,42.8333 13.5,49.5C 13.5,52.8333 13.5,56.1667 13.5,59.5C 11.8333,59.5 10.1667,59.5 8.5,59.5C 8.5,49.5 8.5,39.5 8.5,29.5C 10.1667,29.5 11.8333,29.5 13.5,29.5 Z"/></g>
<g><path style="opacity:1" fill="#000000" d="M 83.5,29.5 C 83.5,34.5 83.5,39.5 83.5,44.5C 80.1667,44.5 76.8333,44.5 73.5,44.5C 73.5,42.8333 73.5,41.1667 73.5,39.5C 75.1667,39.5 76.8333,39.5 78.5,39.5C 78.5,36.1667 78.5,32.8333 78.5,29.5C 80.1667,29.5 81.8333,29.5 83.5,29.5 Z"/></g>
<g><path style="opacity:1" fill="#240a00" d="M 98.5,39.5 C 96.8333,39.5 95.1667,39.5 93.5,39.5C 93.5,36.1667 93.5,32.8333 93.5,29.5C 95.1667,29.5 96.8333,29.5 98.5,29.5C 98.5,32.8333 98.5,36.1667 98.5,39.5 Z"/></g>
<g><path style="opacity:1" fill="#000000" d="M 108.5,29.5 C 110.167,29.5 111.833,29.5 113.5,29.5C 113.5,39.5 113.5,49.5 113.5,59.5C 111.833,59.5 110.167,59.5 108.5,59.5C 108.5,49.5 108.5,39.5 108.5,29.5 Z"/></g>
<g><path style="opacity:1" fill="#3d2316" d="M 13.5,29.5 C 15.1667,29.5 16.8333,29.5 18.5,29.5C 18.5,31.1667 18.5,32.8333 18.5,34.5C 20.1667,34.5 21.8333,34.5 23.5,34.5C 23.5,36.1667 23.5,37.8333 23.5,39.5C 21.8333,39.5 20.1667,39.5 18.5,39.5C 18.5,42.8333 18.5,46.1667 18.5,49.5C 16.8333,49.5 15.1667,49.5 13.5,49.5C 13.5,42.8333 13.5,36.1667 13.5,29.5 Z"/></g>
<g><path style="opacity:1" fill="#040000" d="M 33.5,29.5 C 33.5,32.8333 33.5,36.1667 33.5,39.5C 33.5,42.8333 33.5,46.1667 33.5,49.5C 35.1667,49.5 36.8333,49.5 38.5,49.5C 38.5,51.1667 38.5,52.8333 38.5,54.5C 41.8333,54.5 45.1667,54.5 48.5,54.5C 48.5,56.1667 48.5,57.8333 48.5,59.5C 46.8333,59.5 45.1667,59.5 43.5,59.5C 43.5,61.1667 43.5,62.8333 43.5,64.5C 41.8333,64.5 40.1667,64.5 38.5,64.5C 38.5,62.8333 38.5,61.1667 38.5,59.5C 36.8333,59.5 35.1667,59.5 33.5,59.5C 33.5,61.1667 33.5,62.8333 33.5,64.5C 31.8333,64.5 30.1667,64.5 28.5,64.5C 28.5,61.1667 28.5,57.8333 28.5,54.5C 26.8333,54.5 25.1667,54.5 23.5,54.5C 23.5,51.1667 23.5,47.8333 23.5,44.5C 25.1667,44.5 26.8333,44.5 28.5,44.5C 28.5,39.5 28.5,34.5 28.5,29.5C 30.1667,29.5 31.8333,29.5 33.5,29.5 Z"/></g>
<g><path style="opacity:1" fill="#3b2115" d="M 103.5,29.5 C 105.167,29.5 106.833,29.5 108.5,29.5C 108.5,39.5 108.5,49.5 108.5,59.5C 106.833,59.5 105.167,59.5 103.5,59.5C 103.5,57.8333 103.5,56.1667 103.5,54.5C 101.833,54.5 100.167,54.5 98.5,54.5C 98.5,51.1667 98.5,47.8333 98.5,44.5C 100.167,44.5 101.833,44.5 103.5,44.5C 103.5,39.5 103.5,34.5 103.5,29.5 Z"/></g>
<g><path style="opacity:1" fill="#391f14" d="M 48.5,34.5 C 48.5,36.1667 48.5,37.8333 48.5,39.5C 46.8333,39.5 45.1667,39.5 43.5,39.5C 43.5,41.1667 43.5,42.8333 43.5,44.5C 41.8333,44.5 40.1667,44.5 38.5,44.5C 38.5,46.1667 38.5,47.8333 38.5,49.5C 36.8333,49.5 35.1667,49.5 33.5,49.5C 33.5,46.1667 33.5,42.8333 33.5,39.5C 35.1667,39.5 36.8333,39.5 38.5,39.5C 38.5,37.8333 38.5,36.1667 38.5,34.5C 41.8333,34.5 45.1667,34.5 48.5,34.5 Z"/></g>
<g><path style="opacity:1" fill="#000000" d="M 48.5,39.5 C 48.5,41.1667 48.5,42.8333 48.5,44.5C 46.8333,44.5 45.1667,44.5 43.5,44.5C 43.5,42.8333 43.5,41.1667 43.5,39.5C 45.1667,39.5 46.8333,39.5 48.5,39.5 Z"/></g>
<g><path style="opacity:1" fill="#000000" d="M 93.5,39.5 C 95.1667,39.5 96.8333,39.5 98.5,39.5C 98.5,41.1667 98.5,42.8333 98.5,44.5C 98.5,47.8333 98.5,51.1667 98.5,54.5C 96.8333,54.5 95.1667,54.5 93.5,54.5C 93.5,57.8333 93.5,61.1667 93.5,64.5C 91.8333,64.5 90.1667,64.5 88.5,64.5C 88.5,62.8333 88.5,61.1667 88.5,59.5C 86.8333,59.5 85.1667,59.5 83.5,59.5C 83.5,61.1667 83.5,62.8333 83.5,64.5C 81.8333,64.5 80.1667,64.5 78.5,64.5C 78.5,62.8333 78.5,61.1667 78.5,59.5C 76.8333,59.5 75.1667,59.5 73.5,59.5C 73.5,57.8333 73.5,56.1667 73.5,54.5C 78.5,54.5 83.5,54.5 88.5,54.5C 88.5,52.8333 88.5,51.1667 88.5,49.5C 90.1667,49.5 91.8333,49.5 93.5,49.5C 93.5,46.1667 93.5,42.8333 93.5,39.5 Z"/></g>
<g><path style="opacity:1" fill="#000000" d="M 43.5,44.5 C 43.5,46.1667 43.5,47.8333 43.5,49.5C 41.8333,49.5 40.1667,49.5 38.5,49.5C 38.5,47.8333 38.5,46.1667 38.5,44.5C 40.1667,44.5 41.8333,44.5 43.5,44.5 Z"/></g>
<g><path style="opacity:1" fill="#905730" d="M 43.5,44.5 C 45.1667,44.5 46.8333,44.5 48.5,44.5C 48.5,46.1667 48.5,47.8333 48.5,49.5C 46.8333,49.5 45.1667,49.5 43.5,49.5C 43.5,47.8333 43.5,46.1667 43.5,44.5 Z"/></g>
<g><path style="opacity:1" fill="#000000" d="M 58.5,44.5 C 60.1667,44.5 61.8333,44.5 63.5,44.5C 63.5,47.8333 63.5,51.1667 63.5,54.5C 61.8333,54.5 60.1667,54.5 58.5,54.5C 58.5,51.1667 58.5,47.8333 58.5,44.5 Z"/></g>
<g><path style="opacity:1" fill="#000000" d="M 68.5,44.5 C 70.1667,44.5 71.8333,44.5 73.5,44.5C 73.5,46.1667 73.5,47.8333 73.5,49.5C 73.5,51.1667 73.5,52.8333 73.5,54.5C 71.8333,54.5 70.1667,54.5 68.5,54.5C 68.5,51.1667 68.5,47.8333 68.5,44.5 Z"/></g>
<g><path style="opacity:1" fill="#905730" d="M 73.5,44.5 C 76.8333,44.5 80.1667,44.5 83.5,44.5C 83.5,46.1667 83.5,47.8333 83.5,49.5C 80.1667,49.5 76.8333,49.5 73.5,49.5C 73.5,47.8333 73.5,46.1667 73.5,44.5 Z"/></g>
<g><path style="opacity:1" fill="#000000" d="M 83.5,44.5 C 85.1667,44.5 86.8333,44.5 88.5,44.5C 88.5,46.1667 88.5,47.8333 88.5,49.5C 86.8333,49.5 85.1667,49.5 83.5,49.5C 83.5,47.8333 83.5,46.1667 83.5,44.5 Z"/></g>
<g><path style="opacity:1" fill="#240a00" d="M 13.5,49.5 C 15.1667,49.5 16.8333,49.5 18.5,49.5C 18.5,51.1667 18.5,52.8333 18.5,54.5C 18.5,56.1667 18.5,57.8333 18.5,59.5C 16.8333,59.5 15.1667,59.5 13.5,59.5C 13.5,56.1667 13.5,52.8333 13.5,49.5 Z"/></g>
<g><path style="opacity:1" fill="#f4bb94" d="M 38.5,49.5 C 40.1667,49.5 41.8333,49.5 43.5,49.5C 45.1667,49.5 46.8333,49.5 48.5,49.5C 48.5,51.1667 48.5,52.8333 48.5,54.5C 45.1667,54.5 41.8333,54.5 38.5,54.5C 38.5,52.8333 38.5,51.1667 38.5,49.5 Z"/></g>
<g><path style="opacity:1" fill="#905730" d="M 48.5,49.5 C 50.1667,49.5 51.8333,49.5 53.5,49.5C 53.5,51.1667 53.5,52.8333 53.5,54.5C 51.8333,54.5 50.1667,54.5 48.5,54.5C 48.5,52.8333 48.5,51.1667 48.5,49.5 Z"/></g>
<g><path style="opacity:1" fill="#f5bd97" d="M 48.5,39.5 C 50.1667,39.5 51.8333,39.5 53.5,39.5C 53.5,41.1667 53.5,42.8333 53.5,44.5C 55.1667,44.5 56.8333,44.5 58.5,44.5C 58.5,47.8333 58.5,51.1667 58.5,54.5C 60.1667,54.5 61.8333,54.5 63.5,54.5C 63.5,56.1667 63.5,57.8333 63.5,59.5C 65.1667,59.5 66.8333,59.5 68.5,59.5C 68.5,62.8333 68.5,66.1667 68.5,69.5C 66.8333,69.5 65.1667,69.5 63.5,69.5C 63.5,71.1667 63.5,72.8333 63.5,74.5C 61.8333,74.5 60.1667,74.5 58.5,74.5C 58.5,72.8333 58.5,71.1667 58.5,69.5C 56.8333,69.5 55.1667,69.5 53.5,69.5C 53.5,66.1667 53.5,62.8333 53.5,59.5C 51.8333,59.5 50.1667,59.5 48.5,59.5C 48.5,57.8333 48.5,56.1667 48.5,54.5C 50.1667,54.5 51.8333,54.5 53.5,54.5C 53.5,52.8333 53.5,51.1667 53.5,49.5C 51.8333,49.5 50.1667,49.5 48.5,49.5C 48.5,47.8333 48.5,46.1667 48.5,44.5C 48.5,42.8333 48.5,41.1667 48.5,39.5 Z"/></g>
<g><path style="opacity:1" fill="#f4bb94" d="M 73.5,49.5 C 76.8333,49.5 80.1667,49.5 83.5,49.5C 85.1667,49.5 86.8333,49.5 88.5,49.5C 88.5,51.1667 88.5,52.8333 88.5,54.5C 83.5,54.5 78.5,54.5 73.5,54.5C 73.5,52.8333 73.5,51.1667 73.5,49.5 Z"/></g>
<g><path style="opacity:1" fill="#000000" d="M 18.5,54.5 C 20.1667,54.5 21.8333,54.5 23.5,54.5C 23.5,61.1667 23.5,67.8333 23.5,74.5C 23.5,77.8333 23.5,81.1667 23.5,84.5C 21.8333,84.5 20.1667,84.5 18.5,84.5C 18.5,82.8333 18.5,81.1667 18.5,79.5C 18.5,77.8333 18.5,76.1667 18.5,74.5C 18.5,72.8333 18.5,71.1667 18.5,69.5C 16.8333,69.5 15.1667,69.5 13.5,69.5C 13.5,66.1667 13.5,62.8333 13.5,59.5C 15.1667,59.5 16.8333,59.5 18.5,59.5C 18.5,57.8333 18.5,56.1667 18.5,54.5 Z"/></g>
<g><path style="opacity:1" fill="#f4bb94" d="M 23.5,54.5 C 25.1667,54.5 26.8333,54.5 28.5,54.5C 28.5,57.8333 28.5,61.1667 28.5,64.5C 28.5,66.1667 28.5,67.8333 28.5,69.5C 30.1667,69.5 31.8333,69.5 33.5,69.5C 33.5,71.1667 33.5,72.8333 33.5,74.5C 33.5,76.1667 33.5,77.8333 33.5,79.5C 31.8333,79.5 30.1667,79.5 28.5,79.5C 28.5,77.8333 28.5,76.1667 28.5,74.5C 26.8333,74.5 25.1667,74.5 23.5,74.5C 23.5,67.8333 23.5,61.1667 23.5,54.5 Z"/></g>
<g><path style="opacity:1" fill="#000000" d="M 63.5,54.5 C 65.1667,54.5 66.8333,54.5 68.5,54.5C 68.5,56.1667 68.5,57.8333 68.5,59.5C 66.8333,59.5 65.1667,59.5 63.5,59.5C 63.5,57.8333 63.5,56.1667 63.5,54.5 Z"/></g>
<g><path style="opacity:1" fill="#f4bb94" d="M 68.5,54.5 C 70.1667,54.5 71.8333,54.5 73.5,54.5C 73.5,56.1667 73.5,57.8333 73.5,59.5C 71.8333,59.5 70.1667,59.5 68.5,59.5C 68.5,57.8333 68.5,56.1667 68.5,54.5 Z"/></g>
<g><path style="opacity:1" fill="#f4bb94" d="M 98.5,54.5 C 98.5,61.1667 98.5,67.8333 98.5,74.5C 96.8333,74.5 95.1667,74.5 93.5,74.5C 93.5,76.1667 93.5,77.8333 93.5,79.5C 91.8333,79.5 90.1667,79.5 88.5,79.5C 88.5,77.8333 88.5,76.1667 88.5,74.5C 88.5,72.8333 88.5,71.1667 88.5,69.5C 90.1667,69.5 91.8333,69.5 93.5,69.5C 93.5,67.8333 93.5,66.1667 93.5,64.5C 93.5,61.1667 93.5,57.8333 93.5,54.5C 95.1667,54.5 96.8333,54.5 98.5,54.5 Z"/></g>
<g><path style="opacity:1" fill="#000000" d="M 98.5,54.5 C 100.167,54.5 101.833,54.5 103.5,54.5C 103.5,56.1667 103.5,57.8333 103.5,59.5C 105.167,59.5 106.833,59.5 108.5,59.5C 108.5,62.8333 108.5,66.1667 108.5,69.5C 106.833,69.5 105.167,69.5 103.5,69.5C 103.5,71.1667 103.5,72.8333 103.5,74.5C 103.5,76.1667 103.5,77.8333 103.5,79.5C 103.5,81.1667 103.5,82.8333 103.5,84.5C 101.833,84.5 100.167,84.5 98.5,84.5C 98.5,81.1667 98.5,77.8333 98.5,74.5C 98.5,67.8333 98.5,61.1667 98.5,54.5 Z"/></g>
<g><path style="opacity:1" fill="#905730" d="M 8.5,59.5 C 10.1667,59.5 11.8333,59.5 13.5,59.5C 13.5,62.8333 13.5,66.1667 13.5,69.5C 13.5,71.1667 13.5,72.8333 13.5,74.5C 11.8333,74.5 10.1667,74.5 8.5,74.5C 8.5,69.5 8.5,64.5 8.5,59.5 Z"/></g>
<g><path style="opacity:1" fill="#bfc0bf" d="M 38.5,64.5 C 36.8333,64.5 35.1667,64.5 33.5,64.5C 33.5,62.8333 33.5,61.1667 33.5,59.5C 35.1667,59.5 36.8333,59.5 38.5,59.5C 38.5,61.1667 38.5,62.8333 38.5,64.5 Z"/></g>
<g><path style="opacity:1" fill="#fefffe" d="M 48.5,59.5 C 48.5,61.1667 48.5,62.8333 48.5,64.5C 46.8333,64.5 45.1667,64.5 43.5,64.5C 43.5,62.8333 43.5,61.1667 43.5,59.5C 45.1667,59.5 46.8333,59.5 48.5,59.5 Z"/></g>
<g><path style="opacity:1" fill="#000000" d="M 48.5,59.5 C 50.1667,59.5 51.8333,59.5 53.5,59.5C 53.5,62.8333 53.5,66.1667 53.5,69.5C 51.8333,69.5 50.1667,69.5 48.5,69.5C 46.8333,69.5 45.1667,69.5 43.5,69.5C 43.5,67.8333 43.5,66.1667 43.5,64.5C 45.1667,64.5 46.8333,64.5 48.5,64.5C 48.5,62.8333 48.5,61.1667 48.5,59.5 Z"/></g>
<g><path style="opacity:1" fill="#000000" d="M 68.5,59.5 C 70.1667,59.5 71.8333,59.5 73.5,59.5C 75.1667,59.5 76.8333,59.5 78.5,59.5C 78.5,61.1667 78.5,62.8333 78.5,64.5C 78.5,66.1667 78.5,67.8333 78.5,69.5C 76.8333,69.5 75.1667,69.5 73.5,69.5C 71.8333,69.5 70.1667,69.5 68.5,69.5C 68.5,66.1667 68.5,62.8333 68.5,59.5 Z"/></g>
<g><path style="opacity:1" fill="#fefffe" d="M 73.5,59.5 C 75.1667,59.5 76.8333,59.5 78.5,59.5C 78.5,61.1667 78.5,62.8333 78.5,64.5C 76.8333,64.5 75.1667,64.5 73.5,64.5C 73.5,62.8333 73.5,61.1667 73.5,59.5 Z"/></g>
<g><path style="opacity:1" fill="#bfc0bf" d="M 88.5,64.5 C 86.8333,64.5 85.1667,64.5 83.5,64.5C 83.5,62.8333 83.5,61.1667 83.5,59.5C 85.1667,59.5 86.8333,59.5 88.5,59.5C 88.5,61.1667 88.5,62.8333 88.5,64.5 Z"/></g>
<g><path style="opacity:1" fill="#905730" d="M 108.5,59.5 C 110.167,59.5 111.833,59.5 113.5,59.5C 113.5,64.5 113.5,69.5 113.5,74.5C 111.833,74.5 110.167,74.5 108.5,74.5C 108.5,72.8333 108.5,71.1667 108.5,69.5C 108.5,66.1667 108.5,62.8333 108.5,59.5 Z"/></g>
<g><path style="opacity:1" fill="#905730" d="M 28.5,64.5 C 30.1667,64.5 31.8333,64.5 33.5,64.5C 33.5,66.1667 33.5,67.8333 33.5,69.5C 31.8333,69.5 30.1667,69.5 28.5,69.5C 28.5,67.8333 28.5,66.1667 28.5,64.5 Z"/></g>
<g><path style="opacity:1" fill="#fefffe" d="M 33.5,64.5 C 35.1667,64.5 36.8333,64.5 38.5,64.5C 38.5,67.8333 38.5,71.1667 38.5,74.5C 36.8333,74.5 35.1667,74.5 33.5,74.5C 33.5,72.8333 33.5,71.1667 33.5,69.5C 33.5,67.8333 33.5,66.1667 33.5,64.5 Z"/></g>
<g><path style="opacity:1" fill="#0a60cb" d="M 38.5,64.5 C 40.1667,64.5 41.8333,64.5 43.5,64.5C 43.5,66.1667 43.5,67.8333 43.5,69.5C 45.1667,69.5 46.8333,69.5 48.5,69.5C 48.5,71.1667 48.5,72.8333 48.5,74.5C 45.1667,74.5 41.8333,74.5 38.5,74.5C 38.5,71.1667 38.5,67.8333 38.5,64.5 Z"/></g>
<g><path style="opacity:1" fill="#0a60cb" d="M 78.5,64.5 C 80.1667,64.5 81.8333,64.5 83.5,64.5C 83.5,67.8333 83.5,71.1667 83.5,74.5C 80.1667,74.5 76.8333,74.5 73.5,74.5C 73.5,72.8333 73.5,71.1667 73.5,69.5C 75.1667,69.5 76.8333,69.5 78.5,69.5C 78.5,67.8333 78.5,66.1667 78.5,64.5 Z"/></g>
<g><path style="opacity:1" fill="#fefffe" d="M 83.5,64.5 C 85.1667,64.5 86.8333,64.5 88.5,64.5C 88.5,66.1667 88.5,67.8333 88.5,69.5C 88.5,71.1667 88.5,72.8333 88.5,74.5C 86.8333,74.5 85.1667,74.5 83.5,74.5C 83.5,71.1667 83.5,67.8333 83.5,64.5 Z"/></g>
<g><path style="opacity:1" fill="#905730" d="M 88.5,64.5 C 90.1667,64.5 91.8333,64.5 93.5,64.5C 93.5,66.1667 93.5,67.8333 93.5,69.5C 91.8333,69.5 90.1667,69.5 88.5,69.5C 88.5,67.8333 88.5,66.1667 88.5,64.5 Z"/></g>
<g><path style="opacity:1" fill="#f4bb94" d="M 13.5,69.5 C 15.1667,69.5 16.8333,69.5 18.5,69.5C 18.5,71.1667 18.5,72.8333 18.5,74.5C 16.8333,74.5 15.1667,74.5 13.5,74.5C 13.5,72.8333 13.5,71.1667 13.5,69.5 Z"/></g>
<g><path style="opacity:1" fill="#905730" d="M 48.5,69.5 C 50.1667,69.5 51.8333,69.5 53.5,69.5C 53.5,71.1667 53.5,72.8333 53.5,74.5C 51.8333,74.5 50.1667,74.5 48.5,74.5C 48.5,72.8333 48.5,71.1667 48.5,69.5 Z"/></g>
<g><path style="opacity:1" fill="#fed9b2" d="M 53.5,69.5 C 55.1667,69.5 56.8333,69.5 58.5,69.5C 58.5,71.1667 58.5,72.8333 58.5,74.5C 60.1667,74.5 61.8333,74.5 63.5,74.5C 63.5,72.8333 63.5,71.1667 63.5,69.5C 65.1667,69.5 66.8333,69.5 68.5,69.5C 68.5,71.1667 68.5,72.8333 68.5,74.5C 70.1667,74.5 71.8333,74.5 73.5,74.5C 73.5,76.1667 73.5,77.8333 73.5,79.5C 65.1667,79.5 56.8333,79.5 48.5,79.5C 48.5,77.8333 48.5,76.1667 48.5,74.5C 50.1667,74.5 51.8333,74.5 53.5,74.5C 53.5,72.8333 53.5,71.1667 53.5,69.5 Z"/></g>
<g><path style="opacity:1" fill="#905730" d="M 68.5,69.5 C 70.1667,69.5 71.8333,69.5 73.5,69.5C 73.5,71.1667 73.5,72.8333 73.5,74.5C 71.8333,74.5 70.1667,74.5 68.5,74.5C 68.5,72.8333 68.5,71.1667 68.5,69.5 Z"/></g>
<g><path style="opacity:1" fill="#f4bb94" d="M 108.5,69.5 C 108.5,71.1667 108.5,72.8333 108.5,74.5C 106.833,74.5 105.167,74.5 103.5,74.5C 103.5,72.8333 103.5,71.1667 103.5,69.5C 105.167,69.5 106.833,69.5 108.5,69.5 Z"/></g>
<g><path style="opacity:1" fill="#905730" d="M 13.5,74.5 C 15.1667,74.5 16.8333,74.5 18.5,74.5C 18.5,76.1667 18.5,77.8333 18.5,79.5C 16.8333,79.5 15.1667,79.5 13.5,79.5C 13.5,77.8333 13.5,76.1667 13.5,74.5 Z"/></g>
<g><path style="opacity:1" fill="#905730" d="M 103.5,74.5 C 105.167,74.5 106.833,74.5 108.5,74.5C 108.5,76.1667 108.5,77.8333 108.5,79.5C 106.833,79.5 105.167,79.5 103.5,79.5C 103.5,77.8333 103.5,76.1667 103.5,74.5 Z"/></g>
<g><path style="opacity:1" fill="#000000" d="M 23.5,84.5 C 25.1667,84.5 26.8333,84.5 28.5,84.5C 28.5,86.1667 28.5,87.8333 28.5,89.5C 28.5,87.8333 28.5,86.1667 28.5,84.5C 26.8333,84.5 25.1667,84.5 23.5,84.5 Z"/></g>
<g><path style="opacity:1" fill="#000000" d="M 98.5,84.5 C 98.5,86.1667 98.5,87.8333 98.5,89.5C 96.8333,89.5 95.1667,89.5 93.5,89.5C 93.5,87.8333 93.5,86.1667 93.5,84.5C 95.1667,84.5 96.8333,84.5 98.5,84.5 Z"/></g>
<g><path style="opacity:1" fill="#000000" d="M 28.5,89.5 C 31.8333,89.5 35.1667,89.5 38.5,89.5C 38.5,91.1667 38.5,92.8333 38.5,94.5C 35.1667,94.5 31.8333,94.5 28.5,94.5C 28.5,92.8333 28.5,91.1667 28.5,89.5 Z"/></g>
<g><path style="opacity:1" fill="#583d2f" d="M 23.5,74.5 C 25.1667,74.5 26.8333,74.5 28.5,74.5C 28.5,76.1667 28.5,77.8333 28.5,79.5C 30.1667,79.5 31.8333,79.5 33.5,79.5C 33.5,81.1667 33.5,82.8333 33.5,84.5C 38.5,84.5 43.5,84.5 48.5,84.5C 48.5,86.1667 48.5,87.8333 48.5,89.5C 50.1667,89.5 51.8333,89.5 53.5,89.5C 53.5,91.1667 53.5,92.8333 53.5,94.5C 58.5,94.5 63.5,94.5 68.5,94.5C 68.5,92.8333 68.5,91.1667 68.5,89.5C 70.1667,89.5 71.8333,89.5 73.5,89.5C 73.5,87.8333 73.5,86.1667 73.5,84.5C 78.5,84.5 83.5,84.5 88.5,84.5C 88.5,82.8333 88.5,81.1667 88.5,79.5C 90.1667,79.5 91.8333,79.5 93.5,79.5C 93.5,77.8333 93.5,76.1667 93.5,74.5C 95.1667,74.5 96.8333,74.5 98.5,74.5C 98.5,77.8333 98.5,81.1667 98.5,84.5C 96.8333,84.5 95.1667,84.5 93.5,84.5C 93.5,86.1667 93.5,87.8333 93.5,89.5C 90.1667,89.5 86.8333,89.5 83.5,89.5C 83.5,91.1667 83.5,92.8333 83.5,94.5C 80.1667,94.5 76.8333,94.5 73.5,94.5C 73.5,96.1667 73.5,97.8333 73.5,99.5C 65.1667,99.5 56.8333,99.5 48.5,99.5C 48.5,97.8333 48.5,96.1667 48.5,94.5C 45.1667,94.5 41.8333,94.5 38.5,94.5C 38.5,92.8333 38.5,91.1667 38.5,89.5C 35.1667,89.5 31.8333,89.5 28.5,89.5C 28.5,87.8333 28.5,86.1667 28.5,84.5C 26.8333,84.5 25.1667,84.5 23.5,84.5C 23.5,81.1667 23.5,77.8333 23.5,74.5 Z"/></g>
<g><path style="opacity:1" fill="#905730" d="M 68.5,84.5 C 70.1667,84.5 71.8333,84.5 73.5,84.5C 73.5,86.1667 73.5,87.8333 73.5,89.5C 71.8333,89.5 70.1667,89.5 68.5,89.5C 68.5,87.8333 68.5,86.1667 68.5,84.5 Z"/></g>
<g><path style="opacity:1" fill="#fefffe" d="M 53.5,84.5 C 58.5,84.5 63.5,84.5 68.5,84.5C 68.5,86.1667 68.5,87.8333 68.5,89.5C 63.5,89.5 58.5,89.5 53.5,89.5C 53.5,87.8333 53.5,86.1667 53.5,84.5 Z"/></g>
<g><path style="opacity:1" fill="#905730" d="M 48.5,84.5 C 50.1667,84.5 51.8333,84.5 53.5,84.5C 53.5,86.1667 53.5,87.8333 53.5,89.5C 51.8333,89.5 50.1667,89.5 48.5,89.5C 48.5,87.8333 48.5,86.1667 48.5,84.5 Z"/></g>
<g><path style="opacity:1" fill="#604637" d="M 48.5,79.5 C 56.8333,79.5 65.1667,79.5 73.5,79.5C 73.5,81.1667 73.5,82.8333 73.5,84.5C 71.8333,84.5 70.1667,84.5 68.5,84.5C 63.5,84.5 58.5,84.5 53.5,84.5C 51.8333,84.5 50.1667,84.5 48.5,84.5C 48.5,82.8333 48.5,81.1667 48.5,79.5 Z"/></g>
<g><path style="opacity:1" fill="#ffeec8" d="M 73.5,74.5 C 76.8333,74.5 80.1667,74.5 83.5,74.5C 85.1667,74.5 86.8333,74.5 88.5,74.5C 88.5,76.1667 88.5,77.8333 88.5,79.5C 88.5,81.1667 88.5,82.8333 88.5,84.5C 83.5,84.5 78.5,84.5 73.5,84.5C 73.5,82.8333 73.5,81.1667 73.5,79.5C 73.5,77.8333 73.5,76.1667 73.5,74.5 Z"/></g>
<g><path style="opacity:1" fill="#ffeec8" d="M 33.5,74.5 C 35.1667,74.5 36.8333,74.5 38.5,74.5C 41.8333,74.5 45.1667,74.5 48.5,74.5C 48.5,76.1667 48.5,77.8333 48.5,79.5C 48.5,81.1667 48.5,82.8333 48.5,84.5C 43.5,84.5 38.5,84.5 33.5,84.5C 33.5,82.8333 33.5,81.1667 33.5,79.5C 33.5,77.8333 33.5,76.1667 33.5,74.5 Z"/></g>
<g><path style="opacity:1" fill="#905730" d="M 53.5,89.5 C 58.5,89.5 63.5,89.5 68.5,89.5C 68.5,91.1667 68.5,92.8333 68.5,94.5C 63.5,94.5 58.5,94.5 53.5,94.5C 53.5,92.8333 53.5,91.1667 53.5,89.5 Z"/></g>
<g><path style="opacity:1" fill="#000000" d="M 93.5,89.5 C 93.5,91.1667 93.5,92.8333 93.5,94.5C 90.1667,94.5 86.8333,94.5 83.5,94.5C 83.5,92.8333 83.5,91.1667 83.5,89.5C 86.8333,89.5 90.1667,89.5 93.5,89.5 Z"/></g>
<g><path style="opacity:1" fill="#000000" d="M 38.5,94.5 C 41.8333,94.5 45.1667,94.5 48.5,94.5C 48.5,96.1667 48.5,97.8333 48.5,99.5C 45.1667,99.5 41.8333,99.5 38.5,99.5C 38.5,97.8333 38.5,96.1667 38.5,94.5 Z"/></g>
<g><path style="opacity:1" fill="#000000" d="M 83.5,94.5 C 83.5,96.1667 83.5,97.8333 83.5,99.5C 80.1667,99.5 76.8333,99.5 73.5,99.5C 73.5,97.8333 73.5,96.1667 73.5,94.5C 76.8333,94.5 80.1667,94.5 83.5,94.5 Z"/></g>
<g><path style="opacity:1" fill="#000000" d="M 48.5,99.5 C 56.8333,99.5 65.1667,99.5 73.5,99.5C 73.5,101.167 73.5,102.833 73.5,104.5C 71.8333,104.5 70.1667,104.5 68.5,104.5C 63.5,104.5 58.5,104.5 53.5,104.5C 51.8333,104.5 50.1667,104.5 48.5,104.5C 48.5,102.833 48.5,101.167 48.5,99.5 Z"/></g>
<g><path style="opacity:1" fill="#9a9b9a" d="M 48.5,104.5 C 50.1667,104.5 51.8333,104.5 53.5,104.5C 53.5,106.167 53.5,107.833 53.5,109.5C 48.5,109.5 43.5,109.5 38.5,109.5C 38.5,107.833 38.5,106.167 38.5,104.5C 41.8333,104.5 45.1667,104.5 48.5,104.5 Z"/></g>
<g><path style="opacity:1" fill="#f4bb94" d="M 53.5,104.5 C 58.5,104.5 63.5,104.5 68.5,104.5C 68.5,106.167 68.5,107.833 68.5,109.5C 63.5,109.5 58.5,109.5 53.5,109.5C 53.5,107.833 53.5,106.167 53.5,104.5 Z"/></g>
<g><path style="opacity:1" fill="#9a9b9a" d="M 68.5,104.5 C 70.1667,104.5 71.8333,104.5 73.5,104.5C 76.8333,104.5 80.1667,104.5 83.5,104.5C 83.5,106.167 83.5,107.833 83.5,109.5C 78.5,109.5 73.5,109.5 68.5,109.5C 68.5,107.833 68.5,106.167 68.5,104.5 Z"/></g>
<g><path style="opacity:1" fill="#9a9b9a" d="M 38.5,109.5 C 38.5,111.167 38.5,112.833 38.5,114.5C 36.8333,114.5 35.1667,114.5 33.5,114.5C 33.5,112.833 33.5,111.167 33.5,109.5C 35.1667,109.5 36.8333,109.5 38.5,109.5 Z"/></g>
<g><path style="opacity:1" fill="#f8f8f8" d="M 38.5,109.5 C 43.5,109.5 48.5,109.5 53.5,109.5C 53.5,111.167 53.5,112.833 53.5,114.5C 58.5,114.5 63.5,114.5 68.5,114.5C 68.5,112.833 68.5,111.167 68.5,109.5C 73.5,109.5 78.5,109.5 83.5,109.5C 83.5,111.167 83.5,112.833 83.5,114.5C 85.1667,114.5 86.8333,114.5 88.5,114.5C 88.5,116.167 88.5,117.833 88.5,119.5C 90.1667,119.5 91.8333,119.5 93.5,119.5C 93.5,121.167 93.5,122.833 93.5,124.5C 90.1667,124.5 86.8333,124.5 83.5,124.5C 83.5,122.833 83.5,121.167 83.5,119.5C 81.8333,119.5 80.1667,119.5 78.5,119.5C 78.5,121.167 78.5,122.833 78.5,124.5C 66.8333,124.5 55.1667,124.5 43.5,124.5C 43.5,122.833 43.5,121.167 43.5,119.5C 41.8333,119.5 40.1667,119.5 38.5,119.5C 38.5,121.167 38.5,122.833 38.5,124.5C 35.1667,124.5 31.8333,124.5 28.5,124.5C 28.5,122.833 28.5,121.167 28.5,119.5C 30.1667,119.5 31.8333,119.5 33.5,119.5C 33.5,117.833 33.5,116.167 33.5,114.5C 35.1667,114.5 36.8333,114.5 38.5,114.5C 38.5,112.833 38.5,111.167 38.5,109.5 Z"/></g>
<g><path style="opacity:1" fill="#9a9b9a" d="M 53.5,109.5 C 58.5,109.5 63.5,109.5 68.5,109.5C 68.5,111.167 68.5,112.833 68.5,114.5C 63.5,114.5 58.5,114.5 53.5,114.5C 53.5,112.833 53.5,111.167 53.5,109.5 Z"/></g>
<g><path style="opacity:1" fill="#9a9b9a" d="M 83.5,109.5 C 85.1667,109.5 86.8333,109.5 88.5,109.5C 88.5,111.167 88.5,112.833 88.5,114.5C 88.5,112.833 88.5,111.167 88.5,109.5C 86.8333,109.5 85.1667,109.5 83.5,109.5 Z"/></g>
<g><path style="opacity:1" fill="#9a9b9a" d="M 33.5,114.5 C 33.5,116.167 33.5,117.833 33.5,119.5C 31.8333,119.5 30.1667,119.5 28.5,119.5C 28.5,117.833 28.5,116.167 28.5,114.5C 30.1667,114.5 31.8333,114.5 33.5,114.5 Z"/></g>
<g><path style="opacity:1" fill="#9a9b9a" d="M 88.5,114.5 C 90.1667,114.5 91.8333,114.5 93.5,114.5C 93.5,116.167 93.5,117.833 93.5,119.5C 93.5,117.833 93.5,116.167 93.5,114.5C 91.8333,114.5 90.1667,114.5 88.5,114.5 Z"/></g>
<g><path style="opacity:1" fill="#9a9b9a" d="M 28.5,119.5 C 28.5,121.167 28.5,122.833 28.5,124.5C 26.8333,124.5 25.1667,124.5 23.5,124.5C 23.5,122.833 23.5,121.167 23.5,119.5C 25.1667,119.5 26.8333,119.5 28.5,119.5 Z"/></g>
<g><path style="opacity:1" fill="#9a9b9a" d="M 43.5,124.5 C 41.8333,124.5 40.1667,124.5 38.5,124.5C 38.5,122.833 38.5,121.167 38.5,119.5C 40.1667,119.5 41.8333,119.5 43.5,119.5C 43.5,121.167 43.5,122.833 43.5,124.5 Z"/></g>
<g><path style="opacity:1" fill="#9a9b9a" d="M 83.5,124.5 C 81.8333,124.5 80.1667,124.5 78.5,124.5C 78.5,122.833 78.5,121.167 78.5,119.5C 80.1667,119.5 81.8333,119.5 83.5,119.5C 83.5,121.167 83.5,122.833 83.5,124.5 Z"/></g>
<g><path style="opacity:1" fill="#9a9b9a" d="M 93.5,119.5 C 95.1667,119.5 96.8333,119.5 98.5,119.5C 98.5,121.167 98.5,122.833 98.5,124.5C 96.8333,124.5 95.1667,124.5 93.5,124.5C 93.5,122.833 93.5,121.167 93.5,119.5 Z"/></g>
</svg>
